<svg width="93" height="60" viewBox="0 0 93 60" fill="none" xmlns="http://www.w3.org/2000/svg">
<path fill-rule="evenodd" clip-rule="evenodd" d="M58.5428 2.91262V38.2136H22.3569V28.5437H27.4275C28.2342 28.5437 28.8104 27.7281 28.8104 27.0291C28.8104 26.3301 28.2342 25.6311 27.4275 25.6311H10.9479C10.1412 25.6311 9.56504 26.4466 9.56504 27.1456C9.56504 27.8447 10.1412 28.5437 10.9479 28.5437H19.4759V38.2136H16.4795C15.7881 38.2136 15.0966 38.7961 15.0966 39.6116V51.8446C15.0966 52.5437 15.6728 53.2427 16.4795 53.2427H22.3898C22.7452 57.0004 25.9319 60 29.7324 60C33.8811 60 37.1078 56.6214 37.1078 52.5437C37.1078 48.466 33.7658 45.0874 29.7324 45.0874C26.4173 45.0874 23.5693 47.3697 22.66 50.4466H17.9777V41.1262H65.1115V46.4854H67.9926V21.5534H77.9033C81.7063 26.3301 83.5502 33.2039 83.5502 33.3204C83.6654 33.7864 84.0112 34.2524 84.4721 34.3689L89.5427 36.1165C89.658 36.1165 90.2342 36.466 90.2342 37.5146V49.2815C90.2342 49.8641 90.119 50.0971 90.0037 50.2136C90.0037 50.3301 89.8885 50.3301 89.8885 50.3301H84.825C83.879 47.3123 81.0612 45.0874 77.7881 45.0874C73.7546 45.0874 70.4126 48.466 70.4126 52.5437C70.4126 56.6214 73.7546 60 77.7881 60C81.5886 60 84.7752 57.0004 85.1306 53.2427H89.7732C90.2342 53.2427 91.1561 53.2427 91.8476 52.3107C92.6543 51.6116 93 50.5631 93 49.165V37.398C93 34.8349 91.3866 33.6699 90.4647 33.3204L86.0855 31.8058C85.3941 29.7087 83.3197 23.534 79.5167 19.1068C79.2862 18.8738 78.9405 18.6408 78.4796 18.6408H66.4944C65.803 18.6408 65.1115 19.2233 65.1115 20.0388V38.2136H61.4238V0H19.4759V12.8155H22.3569V2.91262H34.9182V12.5825H45.9814V2.91262H58.5428ZM43.1004 2.91262H37.7992V9.66989H43.1004V2.91262ZM73.2937 52.6602C73.2937 50.0971 75.368 48.1165 77.7881 48.1165C80.2082 48.1165 82.2825 50.0971 82.2825 52.6602C82.2825 55.2233 80.2082 57.2039 77.7881 57.2039C75.2528 57.2039 73.2937 55.2233 73.2937 52.6602ZM29.7324 48.1165C27.3123 48.1165 25.2379 50.0971 25.2379 52.6602C25.2379 55.2233 27.1971 57.2039 29.7324 57.2039C32.1524 57.2039 34.2268 55.2233 34.2268 52.6602C34.2268 50.0971 32.2677 48.1165 29.7324 48.1165Z" fill="#333333"/>
<path d="M1.3829 10.1359H14.8662C15.6729 10.1359 16.1338 9.43688 16.1338 8.73785C16.1338 8.03882 15.5576 7.33979 14.7509 7.33979H1.3829C0.69145 7.33979 0 8.03882 0 8.73785C0 9.43688 0.69145 10.1359 1.3829 10.1359Z" fill="#333333"/>
<path d="M9.21932 19.3398H19.8216V22.9514H22.7026V17.9417C22.7026 17.2427 22.1264 16.5437 21.3197 16.5437H9.21932C8.52787 16.5437 7.83642 17.2427 7.83642 17.9418C7.83642 18.6408 8.41263 19.3398 9.21932 19.3398Z" fill="#333333"/>
<path d="M66.6097 50.3301H40.7956V53.2427H66.6097V50.3301Z" fill="#333333"/>
<path d="M78.1338 35.4175H73.1784C72.3717 35.4175 71.7955 34.7184 71.7955 34.0194C71.7955 33.3204 72.487 32.6213 73.1784 32.6213H76.2899C75.6254 30.6898 74.6015 28.5766 74.0817 27.5037C73.8804 27.0881 73.7546 26.8286 73.7546 26.7961C73.4089 26.0971 73.6394 25.165 74.3308 24.8155C75.0223 24.466 75.9442 24.699 76.2899 25.3981C76.2972 25.4128 76.3147 25.4466 76.341 25.4979C76.7321 26.2572 79.0922 30.8397 79.632 33.7864C79.7472 34.2524 79.632 34.6019 79.2862 34.9514C78.9405 35.1845 78.5948 35.4175 78.1338 35.4175Z" fill="#333333"/>
<path d="M13.1375 34.8349H3.80295C2.99625 34.8349 2.42005 34.1359 2.42005 33.4369C2.42005 32.7379 3.1115 32.0388 3.80295 32.0388H13.1375C13.9442 32.0388 14.5204 32.7379 14.5204 33.4369C14.5204 34.1359 13.9442 34.8349 13.1375 34.8349Z" fill="#333333"/>
</svg>
