<svg width="65" height="71" viewBox="0 0 65 71" fill="none" xmlns="http://www.w3.org/2000/svg">
<path fill-rule="evenodd" clip-rule="evenodd" d="M38.4974 38.2573H63.5149C64.3146 38.2573 65 37.6828 65 36.8786V23.5518C65 22.8624 64.4288 22.1731 63.6292 22.1731H53.2563C55.6224 19.8927 56.3937 16.2791 54.9473 13.0971C54.0334 11.144 52.4341 9.65048 50.4921 8.96116C48.5501 8.15695 46.3796 8.27184 44.4376 9.19093C43.079 9.82855 40.9305 11.8745 38.7749 14.1978C39.7621 11.6096 40.4394 9.36366 40.4394 8.04207C40.4394 3.56149 36.8981 0 32.4429 0C27.9877 0 24.4464 3.67638 24.4464 8.04207C24.4464 9.40123 25.2236 11.877 26.3402 14.7126C24.0291 12.1862 21.6727 9.87285 20.2197 9.19093C18.2777 8.27184 16.1072 8.27184 14.1652 8.96116C12.2232 9.65048 10.6239 11.144 9.71003 13.0971C8.26117 16.1935 9.03753 19.8673 11.4132 22.1731H1.37083C0.685413 22.1731 0 22.7476 0 23.5518V36.8786C0 37.568 0.571177 38.2573 1.37083 38.2573H26.3884V68.1278H6.96837V42.3932H4.11248V69.6214C4.11248 70.3107 4.68366 71 5.48331 71H59.4025C60.2021 71 60.7733 70.3107 60.8875 69.5065V42.3932H58.0316V68.1278H38.4974V38.2573ZM32.1002 24.9304C31.9988 24.9304 31.7975 24.9405 31.514 24.9546C30.9959 24.9805 30.2031 25.0201 29.2443 25.0371V68.1278H35.6415V25.0453H32.6714C32.4732 25.0453 32.2888 25.0038 32.1228 24.9304L32.1002 24.9304ZM38.4974 25.0312V35.3851H62.1441V24.9304H42.137C40.9006 24.9839 39.6614 25.0151 38.4974 25.0312ZM22.6803 24.9304C23.9494 24.9851 25.2141 25.0166 26.3884 25.0323V35.3851H2.74165V24.9304H22.6803ZM35.683 22.1731C41.1599 22.172 48.0978 21.9413 49.9209 21.1392C52.4341 19.9903 53.5765 16.8883 52.3199 14.3608C51.7487 13.0971 50.7206 12.178 49.464 11.7184C48.2074 11.2589 46.8366 11.2589 45.58 11.9482C43.8664 12.6375 39.1828 17.9223 35.6415 22.1731L35.683 22.1731ZM32.4429 2.87217C29.587 2.87217 27.3023 5.1699 27.3023 8.04207C27.3023 9.65049 29.2443 14.8204 32.4429 21.4838C35.6415 14.8204 37.5835 9.65049 37.5835 8.04207C37.4692 5.1699 35.1845 2.87217 32.4429 2.87217ZM17.0211 11.2589C16.4499 11.2589 15.8787 11.3738 15.3076 11.6036C14.051 12.0631 13.0229 12.9822 12.4517 14.2459C11.3093 16.7735 12.3374 19.8754 14.8506 21.0243C16.6784 21.8285 23.6468 22.1731 29.1301 22.0582C25.5888 17.8074 20.9051 12.5226 19.0773 11.7184C18.5062 11.4887 17.7065 11.2589 17.0211 11.2589Z" fill="#333333"/>
</svg>
