<svg width="84" height="68" viewBox="0 0 84 68" fill="none" xmlns="http://www.w3.org/2000/svg">
<path d="M71.2174 8.05415H68.3641V12.8866H63.5707V15.7631H68.3641V20.5956H71.2174V15.7631H76.0109V12.8866H71.2174V8.05415Z" fill="#333333"/>
<path fill-rule="evenodd" clip-rule="evenodd" d="M69.7337 28.6498C61.8587 28.6498 55.4674 22.2064 55.4674 14.2673C55.5815 6.44332 61.9728 0 69.7337 0C77.6087 0 84 6.44332 84 14.3824C84 22.2064 77.6087 28.6498 69.7337 28.6498ZM69.7337 2.87648C63.4565 2.87648 58.3207 8.05415 58.3207 14.3824C58.3207 20.7107 63.4565 25.8883 69.7337 25.8883C76.0109 25.8883 81.1467 20.7107 81.1467 14.3824C81.1467 8.05415 76.0109 2.87648 69.7337 2.87648Z" fill="#333333"/>
<path fill-rule="evenodd" clip-rule="evenodd" d="M43.5978 15.7631V25.8883H55.0109L56.3804 27.4992L55.0311 37.3126L62.2011 36.1286L64.1413 31.2961L66.7663 32.3317L64.4837 37.9696C64.2554 38.4298 63.913 38.775 63.3424 38.89L22.9402 45.5635C21 46.0237 20.6576 47.8647 20.7717 48.9002C20.8859 49.5905 21.1141 50.1658 21.5707 50.1658H66.1957V53.0423H21.5707C19.6304 53.0423 18.2609 51.4315 18.0326 49.1303C17.6902 46.484 19.1739 43.3773 22.4837 42.687L29.948 41.4544L28.0878 28.6498H18.515L21.3424 37.7394C21.5707 38.5449 21.1141 39.3503 20.4293 39.5804C20.3152 39.4653 20.2011 39.4653 19.9728 39.4653C19.4022 39.4653 18.8315 39.1202 18.6033 38.4298L8.67391 6.44333H1.36957C0.684783 6.44333 0 5.86804 0 5.06262C0 4.25721 0.684783 3.68191 1.36957 3.68191H9.70109C10.2717 3.68191 10.8424 4.14215 11.0707 4.71744L13.6117 12.8866H51.4728V15.7631H43.5978ZM40.7446 15.7631V25.8883H30.5703L29.0994 15.7631H40.7446ZM14.5065 15.7631H26.2158L27.6867 25.8883H17.656L14.5065 15.7631ZM53.2989 28.6498L52.0463 37.8054L43.5978 39.2005V28.6498H53.2989ZM40.7446 28.6498V39.6716L32.764 40.9894L30.9714 28.6498H40.7446Z" fill="#333333"/>
<path fill-rule="evenodd" clip-rule="evenodd" d="M26.25 68C23.0544 68 20.4293 65.3536 20.4293 62.132C20.4293 58.9103 23.0544 56.264 26.25 56.264C29.4457 56.264 32.0707 58.9103 32.0707 62.132C32.0707 65.3536 29.4457 68 26.25 68ZM26.25 59.1404C24.6522 59.1404 23.2826 60.5212 23.2826 62.132C23.2826 63.7428 24.6522 65.1235 26.25 65.1235C27.8478 65.1235 29.2174 63.7428 29.2174 62.132C29.2174 60.5212 27.8478 59.1404 26.25 59.1404Z" fill="#333333"/>
<path fill-rule="evenodd" clip-rule="evenodd" d="M52.9565 62.132C52.9565 65.3536 55.5815 68 58.7772 68C61.9728 68 64.5978 65.3536 64.5978 62.132C64.5978 58.9103 61.9728 56.264 58.7772 56.264C55.5815 56.264 52.9565 58.9103 52.9565 62.132ZM55.8098 62.132C55.8098 60.5212 57.1794 59.1404 58.7772 59.1404C60.4891 59.1404 61.7446 60.5212 61.7446 62.132C61.7446 63.7428 60.375 65.1235 58.7772 65.1235C57.1794 65.1235 55.8098 63.7428 55.8098 62.132Z" fill="#333333"/>
</svg>
