<svg width="91" height="71" viewBox="0 0 91 71" fill="none" xmlns="http://www.w3.org/2000/svg">
<path d="M69.7134 16.565C67.8557 16.565 66.114 15.9932 64.6045 14.8496C62.8629 13.4773 61.7017 11.5332 61.3534 9.36036C61.0051 7.18753 61.5856 5.01471 62.979 3.18496C64.3723 1.35521 66.3462 0.325977 68.6684 0.097258C70.8746 -0.24582 73.0807 0.325976 74.9385 1.69829C76.6801 3.0706 77.8413 5.01471 78.1896 7.18753C78.5379 9.36036 77.9574 11.5332 76.564 13.3629C75.1707 15.0783 73.1968 16.2219 70.9907 16.565C70.5262 16.565 70.0618 16.565 69.7134 16.565ZM69.7134 2.84188C69.4812 2.84188 69.249 2.84188 69.0168 2.84188C67.5073 3.0706 66.2301 3.75675 65.3012 4.90035C64.3723 6.04394 64.024 7.53061 64.2562 8.90292C64.4884 10.3896 65.1851 11.6475 66.3462 12.5624C67.5073 13.4773 69.0168 13.8204 70.4101 13.5917C71.9196 13.3629 73.1968 12.6768 74.1257 11.5332C75.0546 10.3896 75.4029 8.90292 75.1707 7.53061C74.9385 6.04394 74.2418 4.78599 73.0807 3.87111C72.1518 3.18496 70.9907 2.84188 69.7134 2.84188Z" fill="#333333"/>
<path d="M71.5712 71C71.4551 71 71.2229 71 71.1068 71C69.8296 70.8856 68.5523 70.3138 67.6234 69.2846C66.6945 68.2554 66.2301 66.8831 66.3462 65.6251C66.5784 61.8513 64.9529 54.9897 64.3723 52.9312C63.0951 51.902 58.9151 50.0723 55.0834 48.6999C52.7611 51.6733 48.5811 56.0189 42.8916 57.5056C42.5433 57.62 42.3111 57.62 42.0789 57.62C39.5244 57.62 32.2094 55.2184 23.7332 50.8728C22.456 50.1866 21.6432 49.1574 21.1788 47.8994C20.7143 46.6415 20.9465 45.2692 21.5271 44.0112C22.456 42.2958 24.1977 41.2666 26.1716 41.2666C26.9843 41.2666 27.7971 41.4953 28.6099 41.8384C32.7899 44.0112 36.6216 45.1548 39.2922 45.9553C39.8727 46.184 40.4533 46.2984 40.9177 46.4128C42.4272 45.0404 44.4011 42.7533 46.0267 40.6948L46.4911 40.123C49.0456 36.4635 58.1023 21.3681 58.9151 19.767V19.6527C56.7089 18.8522 48.0006 17.0224 30.816 23.7696C18.9726 28.4584 8.63871 32.5753 0.627003 26.8573C-0.069667 26.3999 -0.185779 25.485 0.278668 24.9132C0.859226 24.2271 1.78812 23.9983 2.48479 24.4558C8.87093 28.9158 16.9987 26.0568 29.8871 21.025C47.5361 14.0491 56.825 15.7645 59.9601 16.7937C61.0051 17.0224 61.934 17.3655 62.7467 17.7086C62.979 17.8229 63.3273 17.9373 63.5595 18.0517L64.024 18.2804C64.4884 18.5091 64.9529 18.7378 65.3012 18.9665C66.2301 19.5383 67.0429 20.1101 67.7395 20.7963C67.9718 20.9106 68.0879 21.1394 68.3201 21.3681C68.4362 21.4824 68.6684 21.5968 68.7845 21.7112C70.4101 22.8548 72.7323 23.4265 75.6351 23.4265C80.1635 23.4265 84.5757 21.9399 84.5757 21.9399C85.0402 21.7112 85.6207 21.5968 86.3174 21.5968C88.1752 21.5968 89.9169 22.7404 90.6135 24.3414C91.6585 26.6286 90.4974 29.3732 88.1752 30.4025C87.8269 30.5168 84.808 31.7748 80.6279 32.3466C79.2346 32.5753 77.7251 32.5753 76.2157 32.5753C73.8935 32.5753 70.7584 32.3466 67.8557 31.3173C66.3462 34.9768 64.4884 37.4927 63.0951 39.4368C68.0879 41.9527 71.4551 44.4687 73.0807 46.7558L73.429 47.2133C73.5451 47.442 73.6612 47.5564 73.6612 47.7851L73.7774 48.2425C74.1257 48.8143 77.2607 59.4497 76.7962 66.3113C76.564 68.9415 74.2418 71 71.5712 71ZM54.6189 45.4979C54.735 45.4979 54.9673 45.4979 55.0834 45.6122C56.7089 46.184 64.8368 49.043 66.8107 51.2158C66.9268 51.3302 67.0429 51.5589 67.159 51.7876C67.7395 53.9605 69.5973 61.3938 69.249 65.8538C69.249 66.4256 69.3651 66.9974 69.8296 67.4549C70.1779 67.9123 70.7584 68.141 71.339 68.2554C71.4551 68.2554 71.4551 68.2554 71.5712 68.2554C72.7323 68.2554 73.7774 67.3405 73.8935 66.1969C74.3579 59.7928 71.2229 49.3861 71.2229 49.2717L71.1068 48.9287L70.8746 48.5856C69.3651 46.5271 65.6495 44.0112 60.4245 41.4953C60.0762 41.2666 59.7278 40.9235 59.6117 40.5804C59.4956 40.123 59.6117 39.7799 59.844 39.4368C60.0762 39.2081 60.1923 38.9794 60.4245 38.7507C62.0501 36.6922 64.2562 33.8332 65.8818 29.3732C65.9979 29.0302 66.3462 28.6871 66.6945 28.5727C67.0429 28.4584 67.5073 28.4584 67.8557 28.5727C70.6423 29.945 74.0096 30.1737 76.4479 30.1737C77.8413 30.1737 79.1185 30.0594 80.5118 29.945C84.2274 29.4876 87.0141 28.344 87.2463 28.2296C88.1752 27.8866 88.5235 26.8573 88.1752 25.9425C87.8269 25.1419 86.6657 24.6845 85.853 25.0276H85.7368C85.5046 25.1419 80.8602 26.6286 75.8674 26.6286C72.2679 26.6286 69.3651 25.8281 67.2751 24.3414C67.0429 24.2271 66.8106 23.9983 66.5784 23.7696C66.3462 23.5409 66.2301 23.4265 65.9979 23.3122C65.3012 22.7404 64.6045 22.283 63.9079 21.8255C63.5595 21.5968 63.2112 21.3681 62.8629 21.2537L62.3984 21.025C62.1662 20.9106 61.934 20.7963 61.7017 20.6819C61.3534 21.9399 59.844 24.3414 56.3606 30.0594C55.0834 32.2322 50.6711 39.4368 48.8133 42.0671L48.2328 42.7533C46.1428 45.1548 43.8205 48.0138 42.195 49.3861C41.8466 49.7292 41.2661 49.8435 40.8016 49.6148C40.2211 49.3861 39.4083 49.1574 38.4794 48.9287C35.8088 48.1281 31.7449 46.8702 27.2166 44.583C26.1716 44.0112 24.6621 44.4687 24.0816 45.4979C23.8493 46.0697 23.7332 46.6415 23.9654 47.2133C24.1977 47.7851 24.546 48.2425 25.1266 48.5856C34.5316 53.3887 40.6855 55.1041 42.0789 55.1041C42.195 55.1041 42.195 55.1041 42.195 55.1041C47.5361 53.6174 51.4839 49.1574 53.3417 46.5271C53.8061 45.6122 54.2706 45.4979 54.6189 45.4979ZM71.1068 48.9287C71.2229 48.9287 71.2229 48.9287 71.1068 48.9287V48.9287Z" fill="#333333"/>
</svg>
